<svg width="60" height="15" viewBox="0 0 60 15" fill="none" xmlns="http://www.w3.org/2000/svg">
<path d="M60 2.54717V0H51.9431V2.54717H53.0806V12.3585H51.9431V15H60V12.4528H56.9668L56.1137 13.3019H55.6398L55.9242 12.4528V8.67924H59.4313V6.13208H55.9242V2.54717H60ZM50.5213 5.4717V1.41509L49.0995 0H42.654L41.2322 1.41509V13.3962L42.654 15H49.0995L50.5213 13.5849V6.98113H45.6872V9.5283H47.6777V12.0755L47.2986 12.4528H45.1185L44.2654 13.3019H43.7915L44.0758 12.4528V2.92453L44.455 2.54717H47.2986L47.6777 2.92453V5.4717H50.5213ZM38.1043 0H29.3839V2.54717H30.5213V12.4528H29.3839V15H38.1043L39.5261 13.5849V1.41509L38.1043 0ZM36.6825 12.0755L36.3033 12.4528H34.4076L33.5545 13.3019H33.0806L33.3649 12.4528V2.54717H36.3033L36.6825 2.92453V12.0755ZM27.9621 2.54717V0H22.654V2.54717H23.7915V12.4528H22.654V15H27.9621V12.4528H26.8246V2.54717H27.9621ZM20.3791 12.3585L18.9573 9.43396H19.8104L21.2322 8.01887V1.41509L19.8104 0H11.4692V2.54717H12.5118V12.4528H11.4692V15H15.3555V9.43396H15.7346L18.2938 15H21.5166V12.3585H20.3791ZM18.3886 6.50943L18.0095 6.88679H16.3981L15.545 7.73585H15.0711L15.3555 6.88679V2.54717H18.0095L18.3886 2.92453V6.50943ZM10.0474 6.03774V1.41509L8.62559 0H0V2.54717H1.13744V12.4528H0V15H8.62559L10.0474 13.5849V8.39623L8.43602 7.92453V6.41509L10.0474 6.03774ZM6.91943 12.0755L6.54028 12.4528H5.0237L4.17062 13.3019H3.69668L3.98104 12.4528V8.67924H6.91943V12.0755ZM6.91943 6.13208H5.0237L4.17062 6.98113H3.69668L3.98104 6.13208V2.54717H6.54028L6.91943 2.92453V6.13208Z" fill="white"/>
</svg>
