<svg width="20" height="18" viewBox="0 0 20 18" fill="none" xmlns="http://www.w3.org/2000/svg">
<path d="M19.2592 9.48938C19.6449 9.75844 20 10.0253 20 10.9638C20 11.9044 19.4981 12.285 18.9611 12.5497C19.1803 12.9063 19.2504 13.3372 19.1562 13.7441C18.9874 14.4966 18.297 15.0806 17.6833 15.2534C17.9485 15.6778 18.0318 16.0956 17.7162 16.6097C17.3107 17.255 16.9578 17.5 15.3973 17.5H9.04116C6.8757 17.5 5.75351 16.3056 5.75351 15.3125V10.2047C5.75351 7.51406 8.96883 5.22812 8.96883 3.35781L8.73651 1.02813C8.72555 0.885938 8.75404 0.538125 8.86363 0.4375C9.03897 0.264688 9.52335 0 10.2554 0C10.7332 0 11.051 0.0896873 11.4258 0.269062C12.6992 0.875 13.0302 2.40844 13.0302 3.64219C13.0302 4.235 12.1228 6.01125 12.0001 6.62594C12.0001 6.62594 13.9003 6.20594 16.1184 6.19062C18.4438 6.1775 19.9518 6.60625 19.9518 8.0325C19.9518 8.60344 19.4718 9.17656 19.2592 9.48938ZM1.31506 7.83945H2.80295C3.15172 7.83945 3.48622 7.97773 3.73284 8.22387C3.97946 8.47002 4.11801 8.80385 4.11801 9.15195V16.1875C4.11801 16.5356 3.97946 16.8694 3.73284 17.1156C3.48622 17.3617 3.15172 17.5 2.80295 17.5H1.31506C0.966285 17.5 0.631794 17.3617 0.385172 17.1156C0.138551 16.8694 0 16.5356 0 16.1875V9.15195C0 8.80385 0.138551 8.47002 0.385172 8.22387C0.631794 7.97773 0.966285 7.83945 1.31506 7.83945Z" fill="#5B8FFF"/>
</svg>
