<svg width="24" height="17" viewBox="0 0 24 17" fill="none" xmlns="http://www.w3.org/2000/svg">
<path d="M5.4 16.8C2.41875 16.8 0 14.3813 0 11.4C0 9.045 1.5075 7.0425 3.6075 6.30375C3.60375 6.2025 3.6 6.10125 3.6 6C3.6 2.685 6.285 0 9.6 0C11.8238 0 13.7625 1.2075 14.8013 3.0075C15.3713 2.625 16.0613 2.4 16.8 2.4C18.7875 2.4 20.4 4.0125 20.4 6C20.4 6.4575 20.3137 6.8925 20.16 7.2975C22.35 7.74 24 9.67875 24 12C24 14.6513 21.8513 16.8 19.2 16.8H5.4ZM8.3625 10.5375L11.3625 13.5375C11.715 13.89 12.285 13.89 12.6337 13.5375L15.6337 10.5375C15.9862 10.185 15.9862 9.615 15.6337 9.26625C15.2812 8.9175 14.7113 8.91375 14.3625 9.26625L12.9 10.7288V5.7C12.9 5.20125 12.4988 4.8 12 4.8C11.5013 4.8 11.1 5.20125 11.1 5.7V10.7288L9.6375 9.26625C9.285 8.91375 8.715 8.91375 8.36625 9.26625C8.0175 9.61875 8.01375 10.1888 8.36625 10.5375H8.3625Z" fill="#29292E"/>
</svg>
