<svg width="20" height="20" viewBox="0 0 20 20" fill="none" xmlns="http://www.w3.org/2000/svg">
<path d="M5.59416 0.00390625H14.3442C15.3793 0.00390625 16.2231 0.855469 16.184 1.88672C16.1762 2.09375 16.1684 2.30078 16.1567 2.50391H18.0942C19.1137 2.50391 20.0121 3.34766 19.934 4.44922C19.641 8.5 17.5707 10.7266 15.3246 11.8906C14.7074 12.2109 14.0785 12.4492 13.4809 12.625C12.6918 13.7422 11.8715 14.332 11.2192 14.6484V17.5039H13.7192C14.4106 17.5039 14.9692 18.0625 14.9692 18.7539C14.9692 19.4453 14.4106 20.0039 13.7192 20.0039H6.21916C5.52775 20.0039 4.96916 19.4453 4.96916 18.7539C4.96916 18.0625 5.52775 17.5039 6.21916 17.5039H8.71916V14.6484C8.09416 14.3477 7.31681 13.7891 6.559 12.7617C5.84025 12.5742 5.059 12.2891 4.29728 11.8594C2.184 10.6758 0.277751 8.44531 0.00431324 4.44141C-0.0699055 3.34375 0.824626 2.5 1.84416 2.5H3.78166C3.76994 2.29688 3.76213 2.09375 3.75431 1.88281C3.71525 0.847656 4.559 0 5.59416 0V0.00390625ZM3.92228 4.37891H1.87541C2.11759 7.6875 3.63713 9.34375 5.20353 10.2227C4.64103 8.76563 4.17619 6.86328 3.92228 4.37891ZM14.8012 10.0352C16.3832 9.10547 17.8129 7.45312 18.0551 4.37891H16.0121C15.7699 6.75781 15.3324 8.60547 14.8012 10.0352Z" fill="white"/>
</svg>
