<svg width="20" height="19" viewBox="0 0 20 19" fill="none" xmlns="http://www.w3.org/2000/svg">
<path d="M14.3589 8.69751C13.3796 8.87329 12.3379 8.56567 11.5809 7.76733L10.2578 6.37207C9.73696 5.82275 9.44526 5.08301 9.44526 4.30664V3.86353L6.67766 2.27051C6.49362 2.16431 6.37903 1.95557 6.38944 1.73218C6.39986 1.50879 6.52487 1.31104 6.71933 1.21948L8.35837 0.450439C8.99731 0.153809 9.68834 0 10.3898 0H11.0183C12.2927 0 13.5185 0.512695 14.4457 1.43188L15.9944 2.96997C16.8348 3.80493 17.1473 5.00977 16.9181 6.11938L17.4668 6.70166L17.7446 6.40869C18.071 6.06445 18.5988 6.06445 18.9218 6.40869L19.7552 7.2876C20.0816 7.63184 20.0816 8.18848 19.7552 8.52905L16.6994 11.7517C16.3729 12.0959 15.8451 12.0959 15.5222 11.7517L14.6888 10.8728C14.3624 10.5286 14.3624 9.97192 14.6888 9.63135L14.9666 9.33838L14.3589 8.69751ZM0.951472 13.8098L9.05981 6.68701C9.18135 6.86646 9.32025 7.03857 9.46957 7.19971L10.7926 8.59497C11.001 8.8147 11.2232 9.00513 11.4593 9.16992L4.68443 17.7466C4.18092 18.3838 3.43433 18.75 2.64954 18.75C1.18413 18.75 0 17.4976 0 15.9558C0 15.1282 0.350725 14.3408 0.951472 13.8098Z" fill="#A2A2A8"/>
</svg>
