<svg width="20" height="19" viewBox="0 0 20 19" fill="none" xmlns="http://www.w3.org/2000/svg">
<path d="M2.22222 0C0.996528 0 0 0.980957 0 2.1875V13.2812C0 14.4878 0.996528 15.4688 2.22222 15.4688H8.33333L7.96181 16.5625H5.55556C4.94097 16.5625 4.44445 17.0513 4.44445 17.6562C4.44445 18.2612 4.94097 18.75 5.55556 18.75H14.4444C15.059 18.75 15.5556 18.2612 15.5556 17.6562C15.5556 17.0513 15.059 16.5625 14.4444 16.5625H12.0382L11.6667 15.4688H17.7778C19.0035 15.4688 20 14.4878 20 13.2812V2.1875C20 0.980957 19.0035 0 17.7778 0H2.22222ZM18.125 2.1875V11.875H1.875V2.1875H18.125Z" fill="#FF6B4A"/>
</svg>
