<svg width="20" height="19" viewBox="0 0 20 19" fill="none" xmlns="http://www.w3.org/2000/svg">
<path d="M20 7.96685C20 12.3678 16.3629 15.9337 11.8742 15.9337H6.87368V17.7722C6.87368 18.2663 6.56896 18.7144 6.10407 18.9059C5.63918 19.0975 5.10006 18.9902 4.74065 18.6417L0.365213 14.3518L0.279267 14.2599C-0.119211 13.7773 -0.0918645 13.0687 0.365213 12.6206L4.74065 8.33072C5.10006 7.97834 5.63527 7.87492 6.10407 8.06643C6.57287 8.25794 6.87368 8.69842 6.87368 9.19252V11.031H11.8742C13.6009 11.031 14.9995 9.6598 14.9995 7.96685C14.9995 6.27389 13.6009 4.90268 11.8742 4.90268H3.74837C3.05689 4.90268 2.49824 4.35495 2.49824 3.67701V1.22567C2.49824 0.547721 3.05689 0 3.74837 0H11.8742C16.3629 0 20 3.56593 20 7.96685Z" fill="white"/>
</svg>
