<svg width="24" height="24" viewBox="0 0 24 24" fill="none" xmlns="http://www.w3.org/2000/svg">
<path d="M12 22C9.34784 22 6.8043 20.9464 4.92893 19.0711C3.05357 17.1957 2 14.6522 2 12C2 9.34784 3.05357 6.8043 4.92893 4.92893C6.8043 3.05357 9.34784 2 12 2C14.6522 2 17.1957 3.05357 19.0711 4.92893C20.9464 6.8043 22 9.34784 22 12C22 14.6522 20.9464 17.1957 19.0711 19.0711C17.1957 20.9464 14.6522 22 12 22ZM16.6094 7.69141C16.1914 7.38672 15.6055 7.48047 15.3008 7.89844L10.6367 14.3125L8.60156 12.2773C8.23438 11.9102 7.64063 11.9102 7.27734 12.2773C6.91406 12.6445 6.91016 13.2383 7.27734 13.6016L10.0898 16.4141C10.2852 16.6094 10.5508 16.707 10.8242 16.6875C11.0977 16.668 11.3477 16.5273 11.5078 16.3047L16.8164 9C17.1211 8.58203 17.0273 7.99609 16.6094 7.69141Z" fill="white"/>
</svg>
