<svg width="17" height="20" viewBox="0 0 17 20" fill="none" xmlns="http://www.w3.org/2000/svg">
<path d="M7.49991 0C8.19132 0 8.74991 0.558594 8.74991 1.25V9.375H6.24991V1.25C6.24991 0.558594 6.80851 0 7.49991 0ZM11.2499 6.25C11.9413 6.25 12.4999 6.80859 12.4999 7.5V10C12.4999 10.6914 11.9413 11.25 11.2499 11.25C10.5585 11.25 9.99991 10.6914 9.99991 10V7.5C9.99991 6.80859 10.5585 6.25 11.2499 6.25ZM13.7499 8.75C13.7499 8.05859 14.3085 7.5 14.9999 7.5C15.6913 7.5 16.2499 8.05859 16.2499 8.75V11.25C16.2499 11.9414 15.6913 12.5 14.9999 12.5C14.3085 12.5 13.7499 11.9414 13.7499 11.25V8.75ZM2.39444 2L5.62101 9.375H2.89054L0.105381 3C-0.171963 2.36719 0.1171 1.63281 0.749912 1.35547C1.38272 1.07812 2.12101 1.36719 2.39444 2ZM3.44913 10.6445L3.44132 10.625H6.17179H7.19132C8.0546 10.625 8.75382 11.3242 8.75382 12.1875C8.75382 13.0508 8.0546 13.75 7.19132 13.75H5.00382C4.66007 13.75 4.37882 14.0312 4.37882 14.375C4.37882 14.7188 4.66007 15 5.00382 15H7.19132C8.74601 15 10.0038 13.7422 10.0038 12.1875V12.1641C10.371 12.375 10.7968 12.5 11.2538 12.5C11.7694 12.5 12.246 12.3438 12.6444 12.0781C12.9843 13.0508 13.914 13.75 15.0038 13.75C15.4608 13.75 15.8866 13.6289 16.2538 13.4141V13.75C16.2538 17.2031 13.4569 20 10.0038 20H7.59366C5.93741 20 4.34757 19.3398 3.17569 18.168L2.72257 17.7148C1.77726 16.7773 1.24991 15.5039 1.24991 14.1797V13.125C1.24991 11.8477 2.21085 10.793 3.44913 10.6445Z" fill="#00C2B2"/>
</svg>
