<svg width="20" height="20" viewBox="0 0 20 20" fill="none" xmlns="http://www.w3.org/2000/svg">
<path d="M10.5039 0.00518144C10.2891 -0.0222034 10.0742 0.059951 9.9375 0.228172C9.80078 0.396393 9.75781 0.623296 9.82812 0.830638C9.9375 1.15143 9.99609 1.49178 9.99609 1.8517C9.99609 3.57694 8.60156 4.97748 6.87891 4.98139L6.25 4.97748C4.87109 4.97748 3.75 6.10026 3.75 7.48123C3.75 8.22845 4.07812 8.90133 4.59766 9.35905H4.0625C2.50781 9.35905 1.25 10.6187 1.25 12.1758C1.25 13.0834 1.67969 13.8893 2.34375 14.4057C1.01172 14.6287 0 15.7867 0 17.1833C0 18.7403 1.25781 20 2.8125 20H17.1875C18.7422 20 20 18.7403 20 17.1833C20 15.7867 18.9883 14.6287 17.6562 14.4057C18.3203 13.8893 18.75 13.0834 18.75 12.1758C18.75 10.6187 17.4922 9.35905 15.9375 9.35905H15.4023C15.9219 8.90133 16.25 8.22845 16.25 7.48123C16.25 6.10026 15.1289 4.97748 13.75 4.97748H13.5352C13.6719 4.58627 13.75 4.16376 13.75 3.7256C13.75 1.82431 12.3359 0.251645 10.5039 0.00518144ZM7.5 9.98499C7.83152 9.98499 8.14946 10.1169 8.38388 10.3517C8.6183 10.5864 8.75 10.9048 8.75 11.2369C8.75 11.5689 8.6183 11.8873 8.38388 12.1221C8.14946 12.3568 7.83152 12.4887 7.5 12.4887C7.16848 12.4887 6.85054 12.3568 6.61612 12.1221C6.3817 11.8873 6.25 11.5689 6.25 11.2369C6.25 10.9048 6.3817 10.5864 6.61612 10.3517C6.85054 10.1169 7.16848 9.98499 7.5 9.98499ZM11.25 11.2369C11.25 10.9048 11.3817 10.5864 11.6161 10.3517C11.8505 10.1169 12.1685 9.98499 12.5 9.98499C12.8315 9.98499 13.1495 10.1169 13.3839 10.3517C13.6183 10.5864 13.75 10.9048 13.75 11.2369C13.75 11.5689 13.6183 11.8873 13.3839 12.1221C13.1495 12.3568 12.8315 12.4887 12.5 12.4887C12.1685 12.4887 11.8505 12.3568 11.6161 12.1221C11.3817 11.8873 11.25 11.5689 11.25 11.2369ZM13.75 15.4737C13.75 15.5676 13.7227 15.6615 13.6641 15.7358C13.3438 16.1466 12.1211 17.4962 10 17.4962C7.87891 17.4962 6.65625 16.1427 6.33594 15.7358C6.27734 15.6615 6.25 15.5676 6.25 15.4737C6.25 15.2077 6.46484 14.9925 6.73047 14.9925H13.2695C13.5352 14.9925 13.75 15.2077 13.75 15.4737Z" fill="white"/>
</svg>
