<svg width="18" height="20" viewBox="0 0 18 20" fill="none" xmlns="http://www.w3.org/2000/svg">
<path d="M1.25 0C1.94141 0 2.5 0.558594 2.5 1.25V1.875L5.19531 1.20312C6.68359 0.832031 8.25391 1.00391 9.62891 1.69141C11.4375 2.59766 13.5664 2.59766 15.375 1.69141L15.75 1.50391C16.5547 1.09766 17.5 1.68359 17.5 2.58203V13.5078C17.5 14.0273 17.1758 14.4961 16.6875 14.6797L15.332 15.1875C13.5273 15.8633 11.5195 15.7578 9.79688 14.8984C8.31641 14.1562 6.61719 13.9727 5.01172 14.375L2.5 15V18.75C2.5 19.4414 1.94141 20 1.25 20C0.558594 20 0 19.4414 0 18.75V1.25C0 0.558594 0.558594 0 1.25 0ZM2.5 7.30859L5 6.76562V9.32422L2.5 9.86719V12.4258L4.40625 11.9492C4.60547 11.8984 4.80078 11.8555 5 11.8203V9.32422L6.51953 8.99609C6.84375 8.92578 7.17188 8.89844 7.5 8.91406V6.41406C8.03125 6.42969 8.5625 6.51563 9.07812 6.66406L10 6.93359V9.53906L8.37109 9.05859C8.08594 8.97656 7.79297 8.92578 7.5 8.91016V11.6992C8.35156 11.7734 9.19141 11.9609 10 12.2617V9.53516L10.8867 9.79688C11.4141 9.95312 11.9531 10.0469 12.5 10.0859V7.57812C12.1953 7.54688 11.8906 7.48828 11.5938 7.40234L10 6.93359V4.51172C9.49219 4.36328 8.99219 4.16797 8.50781 3.92578C8.1875 3.76562 7.84766 3.65234 7.5 3.58203V6.41016C6.99219 6.39453 6.48438 6.44141 5.98828 6.55078L5 6.76562V3.82812L2.5 4.45312V7.30859ZM12.5 13.1133C13.1562 13.1719 13.8242 13.0859 14.4531 12.8477L15 12.6445V9.84375L14.6914 9.91406C13.9727 10.082 13.2344 10.1367 12.5 10.0898V13.1133ZM15 7.27734V4.51172C14.1836 4.75 13.3438 4.86719 12.5 4.86719V7.57812C13.043 7.63281 13.5938 7.59766 14.1289 7.47656L15 7.27344V7.27734Z" fill="white"/>
</svg>
