<svg width="20" height="20" viewBox="0 0 20 20" fill="none" xmlns="http://www.w3.org/2000/svg">
<path d="M8.57203 0C5.54182 0 4.28601 1.94371 4.28601 4.28601C4.28601 5.07464 4.66271 5.86676 4.66271 5.86676C4.51127 5.95391 4.26222 6.23055 4.32508 6.72201C4.44223 7.6385 4.83956 7.87189 5.09243 7.89118C5.18887 8.74623 6.10757 9.84001 6.42902 9.9993V11.428C5.71468 13.571 0 12.1423 0 17.1427H8.2316C7.99373 16.4712 7.85769 15.7526 7.85769 14.9997C7.85769 12.4716 9.32035 10.2911 11.4419 9.24032C11.7341 8.83315 12.0016 8.33192 12.0516 7.89118C12.3045 7.87189 12.7018 7.6385 12.819 6.72201C12.8818 6.22983 12.6328 5.95391 12.4813 5.86676C12.4813 5.86676 12.858 5.15107 12.858 4.28601C12.858 2.55161 12.1773 1.0715 10.715 1.0715C10.715 1.0715 10.2071 0 8.57203 0ZM14.2867 9.9993C11.5251 9.9993 9.28636 12.238 9.28636 14.9997C9.28636 17.7613 11.5251 20 14.2867 20C17.0483 20 19.2871 17.7613 19.2871 14.9997C19.2871 12.238 17.0483 9.9993 14.2867 9.9993ZM14.2867 12.1423C14.681 12.1423 15.001 12.4616 15.001 12.8566V14.2853H16.4297C16.824 14.2853 17.1441 14.6046 17.1441 14.9997C17.1441 15.3947 16.824 15.714 16.4297 15.714H15.001V17.1427C15.001 17.5377 14.681 17.857 14.2867 17.857C13.8924 17.857 13.5724 17.5377 13.5724 17.1427V15.714H12.1437C11.7494 15.714 11.4294 15.3947 11.4294 14.9997C11.4294 14.6046 11.7494 14.2853 12.1437 14.2853H13.5724V12.8566C13.5724 12.4616 13.8924 12.1423 14.2867 12.1423Z" fill="#BCE648"/>
</svg>
