<svg width="17" height="15" viewBox="0 0 17 15" fill="none" xmlns="http://www.w3.org/2000/svg">
<path d="M0 1.25C0 0.558594 0.614453 0 1.375 0H15.125C15.8855 0 16.5 0.558594 16.5 1.25C16.5 1.94141 15.8855 2.5 15.125 2.5H1.375C0.614453 2.5 0 1.94141 0 1.25ZM0 7.5C0 6.80859 0.614453 6.25 1.375 6.25H15.125C15.8855 6.25 16.5 6.80859 16.5 7.5C16.5 8.19141 15.8855 8.75 15.125 8.75H1.375C0.614453 8.75 0 8.19141 0 7.5ZM16.5 13.75C16.5 14.4414 15.8855 15 15.125 15H1.375C0.614453 15 0 14.4414 0 13.75C0 13.0586 0.614453 12.5 1.375 12.5H15.125C15.8855 12.5 16.5 13.0586 16.5 13.75Z" fill="#FB3E67"/>
</svg>
