<svg width="19" height="20" viewBox="0 0 19 20" fill="none" xmlns="http://www.w3.org/2000/svg">
<path d="M8.67759 0.00268869C4.50829 -0.103467 0.772258 2.94557 0.112248 7.0641C-0.381606 10.1472 0.792944 12.9791 2.87221 14.8091C3.51068 15.3707 3.84578 16.2015 3.84578 17.0522V20H11.5382V18.8011C11.5382 18.1387 11.9614 17.5514 12.5899 17.3422L15.102 16.5054C15.7297 16.2953 16.1537 15.7073 16.1537 15.045V12.1108L17.898 11.5098C18.0599 11.4648 18.2027 11.3681 18.3044 11.2343C18.4062 11.1005 18.4613 10.9371 18.4614 10.7691C18.4609 10.5921 18.3993 10.4207 18.2871 10.2838L18.2661 10.2583C18.2588 10.2496 18.2512 10.2411 18.2435 10.2327L16.1221 7.69061C15.8138 3.44982 12.9704 0.110824 8.67759 0.00268869ZM9.07724 4.62866C9.17516 4.60879 9.27838 4.60863 9.38223 4.63017C9.79839 4.71324 10.0685 5.1177 9.9847 5.53463L8.44621 13.2271C8.37391 13.5932 8.05274 13.8461 7.6935 13.8461C7.6435 13.8461 7.59252 13.8418 7.54175 13.831C7.12559 13.748 6.85393 13.342 6.93778 12.9251L8.47626 5.23264C8.538 4.91936 8.78347 4.68827 9.07724 4.62866ZM4.75775 6.16715C4.85605 6.18589 4.95287 6.2253 5.04171 6.28434C5.39557 6.5205 5.49122 6.99721 5.25506 7.35106L4.00053 9.2306L5.25506 11.1116C5.49122 11.4655 5.39557 11.9422 5.04171 12.1784C4.91017 12.2653 4.76268 12.3076 4.61653 12.3076C4.36806 12.3076 4.12268 12.1873 3.97499 11.965L2.4365 9.65729C2.26419 9.39882 2.26419 9.06237 2.4365 8.80391L3.97499 6.49618C4.15153 6.23079 4.46287 6.11093 4.75775 6.16715ZM12.1632 6.16715C12.4577 6.11093 12.7704 6.23079 12.9475 6.49618L14.486 8.80391C14.6583 9.06238 14.6583 9.39882 14.486 9.65729L12.9475 11.965C12.7998 12.1873 12.5544 12.3076 12.306 12.3076C12.1598 12.3076 12.0123 12.2653 11.8808 12.1784C11.5269 11.9422 11.4313 11.4655 11.6674 11.1116L12.9219 9.2306L11.6674 7.34956C11.4313 6.99571 11.5269 6.51899 11.8808 6.28284C11.9692 6.2238 12.0651 6.18589 12.1632 6.16715Z" fill="#AF72FE"/>
</svg>
